<?xml version="1.0" standalone="no"?>
<!DOCTYPE svg PUBLIC "-//W3C//DTD SVG 20010904//EN"
 "http://www.w3.org/TR/2001/REC-SVG-20010904/DTD/svg10.dtd">
<svg version="1.0" xmlns="http://www.w3.org/2000/svg"
 width="509.000000pt" height="509.000000pt" viewBox="0 0 509.000000 509.000000"
 preserveAspectRatio="xMidYMid meet">
<metadata>
Created by potrace 1.14, written by Peter Selinger 2001-2017
</metadata>
<g transform="translate(0.000000,509.000000) scale(0.100000,-0.100000)"
fill="#000000" stroke="none">
<path d="M3024 4795 c-33 -155 -47 -238 -40 -240 6 -2 56 -16 111 -31 127 -35
273 -92 387 -151 56 -28 93 -42 99 -36 5 5 61 98 124 208 88 150 113 200 103
207 -36 24 -254 130 -335 161 -104 41 -298 101 -358 111 l-41 7 -50 -236z"/>
<path d="M1994 4786 c-90 -39 -83 -170 9 -194 44 -11 72 -4 101 25 80 80 -7
213 -110 169z"/>
<path d="M914 4499 c-74 -62 -256 -244 -318 -319 -67 -80 -176 -228 -176 -239
0 -4 15 -15 32 -26 18 -10 107 -67 197 -127 90 -59 167 -108 171 -108 4 0 40
44 80 98 40 53 136 160 215 238 l142 140 -139 175 c-77 96 -145 180 -152 187
-11 11 -20 8 -52 -19z"/>
<path d="M2340 4323 c-184 -28 -170 -17 -149 -113 l11 -52 42 5 c22 3 98 11
169 18 l127 13 0 68 0 68 -87 -1 c-49 -1 -99 -3 -113 -6z"/>
<path d="M2880 4243 c-6 -32 -12 -64 -13 -71 -1 -9 28 -21 88 -37 50 -12 114
-32 143 -43 l53 -21 20 46 c38 90 39 87 -43 117 -68 24 -214 66 -230 66 -3 0
-12 -26 -18 -57z"/>
<path d="M1739 4142 c-52 -27 -115 -62 -141 -78 l-47 -30 40 -61 41 -62 52 34
c29 18 87 51 129 72 43 20 77 43 77 49 0 13 -48 124 -53 124 -2 0 -46 -22 -98
-48z"/>
<path d="M2257 4129 c-320 -56 -608 -208 -848 -448 -206 -207 -341 -438 -419
-721 -67 -244 -67 -584 1 -830 126 -454 441 -831 859 -1029 456 -215 958 -211
1405 10 402 199 704 561 830 994 47 164 59 255 59 455 -1 208 -17 310 -79 496
-185 556 -674 976 -1253 1075 -153 26 -403 25 -555 -2z m-61 -1061 c78 -23
170 -76 210 -121 20 -22 48 -65 63 -96 23 -50 26 -68 26 -166 0 -98 -3 -116
-26 -166 -50 -106 -128 -171 -252 -212 -50 -16 -98 -21 -244 -25 l-183 -4 0
-154 0 -154 -130 0 -130 0 0 561 0 561 308 -5 c236 -3 319 -8 358 -19z m1175
-6 c83 -28 178 -90 212 -139 57 -82 71 -131 71 -238 0 -82 -4 -109 -22 -150
-37 -81 -71 -123 -136 -166 -34 -23 -60 -45 -59 -49 1 -5 54 -83 118 -174 63
-90 115 -167 115 -170 0 -3 -60 -6 -133 -6 l-133 0 -103 149 c-56 83 -109 155
-116 161 -10 8 -46 10 -125 5 l-110 -8 0 -153 0 -154 -130 0 -130 0 0 561 0
561 308 -4 c283 -4 312 -6 373 -26z"/>
<path d="M1790 2685 l0 -197 158 4 c139 3 162 6 199 25 64 35 87 75 91 158 4
88 -22 138 -88 175 -42 23 -57 25 -202 28 l-158 4 0 -197z"/>
<path d="M2950 2685 l0 -195 148 0 c134 0 152 2 198 24 153 71 134 302 -29
351 -34 10 -94 15 -184 15 l-133 0 0 -195z"/>
<path d="M4100 4092 c-56 -57 -35 -151 40 -173 70 -21 130 27 130 106 0 51
-35 86 -92 92 -42 5 -50 3 -78 -25z"/>
<path d="M3476 3985 c-20 -30 -36 -56 -36 -59 0 -2 35 -30 78 -62 42 -32 101
-80 130 -108 l53 -50 51 52 52 51 -20 22 c-41 46 -249 209 -267 209 -2 0 -21
-25 -41 -55z"/>
<path d="M1219 3747 c-60 -67 -169 -210 -169 -221 0 -7 105 -76 117 -76 4 0
23 23 42 50 18 27 65 86 103 131 l71 81 -49 49 c-26 27 -51 49 -54 49 -3 0
-30 -28 -61 -63z"/>
<path d="M4620 3530 c-113 -55 -208 -100 -213 -102 -4 -2 11 -47 33 -101 62
-153 130 -401 130 -481 0 -46 3 -46 250 -14 129 16 237 32 240 34 7 7 -29 208
-56 314 -45 174 -146 441 -169 446 -5 1 -102 -42 -215 -96z"/>
<path d="M3968 3502 c-32 -20 -58 -40 -58 -43 0 -3 23 -44 50 -90 28 -46 57
-103 66 -126 9 -24 22 -43 29 -43 15 0 125 48 125 54 0 20 -142 286 -153 286
-1 0 -28 -17 -59 -38z"/>
<path d="M851 3118 c-41 -126 -62 -211 -53 -219 10 -9 123 -30 131 -24 4 2 13
29 20 60 7 31 25 94 41 140 l28 84 -64 25 c-35 14 -66 26 -68 26 -3 0 -18 -42
-35 -92z"/>
<path d="M321 3026 c-31 -17 -50 -53 -51 -94 0 -39 41 -87 84 -98 58 -14 126
45 126 110 0 41 -58 96 -101 96 -19 -1 -45 -7 -58 -14z"/>
<path d="M4215 2903 c-32 -8 -61 -15 -62 -17 -2 -2 3 -56 12 -120 8 -64 15
-139 15 -167 l0 -49 75 0 75 0 0 43 c0 98 -34 328 -48 326 -4 -1 -34 -8 -67
-16z"/>
<path d="M760 2474 c0 -65 26 -283 34 -292 3 -2 45 6 122 23 20 4 20 7 8 76
-7 40 -15 116 -19 171 l-7 98 -69 0 -69 0 0 -76z"/>
<path d="M233 2261 c-111 -14 -204 -29 -207 -32 -15 -15 49 -311 104 -480 32
-97 108 -279 117 -279 8 0 417 192 426 200 5 4 -12 60 -38 125 -49 121 -108
337 -120 438 l-7 57 -37 -1 c-20 -1 -127 -13 -238 -28z"/>
<path d="M4140 2188 c-6 -24 -24 -88 -41 -143 -17 -55 -31 -102 -31 -105 1 -3
31 -17 67 -32 l66 -27 9 24 c28 73 70 225 73 259 l2 40 -60 12 c-33 7 -63 13
-67 14 -4 0 -12 -19 -18 -42z"/>
<path d="M4629 2135 c-15 -8 -34 -30 -43 -49 -48 -101 76 -193 162 -121 38 32
48 72 28 118 -24 59 -91 82 -147 52z"/>
<path d="M957 1872 l-57 -27 29 -63 c26 -54 89 -165 120 -211 9 -14 20 -8 123
60 5 3 -6 31 -26 61 -19 30 -52 89 -73 131 -20 43 -42 77 -48 77 -5 -1 -36
-13 -68 -28z"/>
<path d="M3865 1584 c-26 -36 -74 -95 -108 -130 l-60 -65 52 -52 52 -52 61 64
c33 36 87 100 119 144 l59 80 -58 39 c-31 21 -60 38 -64 38 -3 0 -27 -30 -53
-66z"/>
<path d="M4208 1353 c-69 -101 -202 -248 -300 -332 l-86 -74 151 -188 c83
-104 154 -189 158 -189 13 0 193 166 273 251 87 93 256 313 256 332 -1 11
-369 258 -395 265 -6 1 -32 -28 -57 -65z"/>
<path d="M1331 1336 l-52 -53 68 -60 c37 -32 97 -81 133 -108 36 -27 70 -52
76 -57 7 -5 24 11 47 47 20 30 38 59 39 64 2 5 -28 32 -67 59 -38 27 -97 75
-131 105 l-61 56 -52 -53z"/>
<path d="M3392 1151 c-23 -15 -78 -45 -122 -66 -44 -21 -80 -44 -80 -51 0 -21
50 -124 60 -124 24 0 264 132 276 152 8 13 -63 118 -79 117 -6 0 -31 -13 -55
-28z"/>
<path d="M914 1120 c-66 -27 -85 -120 -35 -171 56 -55 159 -25 176 51 9 41
-19 95 -60 114 -37 18 -50 19 -81 6z"/>
<path d="M1905 963 c-14 -36 -22 -69 -18 -73 20 -17 257 -90 294 -90 11 0 19
17 28 66 6 37 10 68 8 70 -2 2 -51 17 -108 33 -57 17 -120 37 -141 45 l-36 15
-27 -66z"/>
<path d="M2785 930 c-22 -5 -86 -12 -142 -16 l-103 -7 0 -75 0 -75 99 7 c108
7 257 29 267 39 3 3 0 34 -8 69 -12 60 -15 63 -43 65 -17 0 -48 -3 -70 -7z"/>
<path d="M1403 598 c-56 -95 -111 -190 -123 -210 l-21 -37 158 -79 c212 -104
568 -223 592 -196 7 8 101 436 101 460 0 6 -35 19 -77 28 -122 29 -268 82
-398 147 -66 32 -123 59 -126 59 -4 0 -51 -78 -106 -172z"/>
<path d="M3009 481 c-23 -24 -29 -38 -29 -74 0 -105 129 -145 187 -58 33 49
30 86 -11 127 -46 46 -104 48 -147 5z"/>
</g>
</svg>
